<svg xmlns="http://www.w3.org/2000/svg" width="26" height="26"><path fill="#fff" d="M25.822 10.867a12.946 12.946 0 01-3.451 11.13 12.96 12.96 0 01-14.69 2.86c-.01-.003-.02-.008-.03-.013A13.03 13.03 0 01.095 14.545c-.003-.008-.003-.017-.003-.026A12.923 12.923 0 014.064 3.572 12.95 12.95 0 0113 0c.134 0 .267.006.4.01h.01a12.991 12.991 0 0110.254 5.567 12.927 12.927 0 012.157 5.283zM19.477 7.57a17.767 17.767 0 015.264 2.366 12.078 12.078 0 00-1.662-3.683c-1.256.18-2.487.5-3.672.953.034.119.057.24.07.362zm-2.292 2.38a2.15 2.15 0 01-1.512-.776 17.467 17.467 0 00-5.167 5.657c.714.6.955 1.594.597 2.455a17.635 17.635 0 002.725 1.84A2.162 2.162 0 0115.6 18.2c.204.003.406.035.6.095a17.24 17.24 0 001.134-6.162 17.137 17.137 0 00-.149-2.181zM14.22 22.026a2.138 2.138 0 01-.743-2.1 18.512 18.512 0 01-2.86-1.916c-.404.4-.949.624-1.517.624-.064 0-.123-.013-.186-.018a17.269 17.269 0 00-.663 5.55 12.05 12.05 0 003.304.88 17.171 17.171 0 002.665-3.02zM5.633 11.267a1.3 1.3 0 100-2.6 1.3 1.3 0 000 2.6zM5.227 7.84a2.12 2.12 0 012.028.704 18.015 18.015 0 017.479-1.612c.202 0 .404.01.606.018.178-.41.476-.753.856-.987A17.155 17.155 0 0013.171.871c-.057 0-.114-.004-.17-.004a12.086 12.086 0 00-8.228 3.225c.014 1.263.166 2.52.454 3.75zm1.472 4a17.279 17.279 0 001.654 2.6 2.01 2.01 0 011.397-.03 18.339 18.339 0 015.512-6.007 2.136 2.136 0 01-.095-.591c-.144-.005-.288-.013-.434-.013a17.154 17.154 0 00-7.048 1.502c.073.214.112.438.115.665a2.16 2.16 0 01-1.1 1.874zM7.8 16.467a1.3 1.3 0 102.6 0 1.3 1.3 0 00-2.6 0zm7.567 5.178a1.297 1.297 0 001.446-.825v-.003c.056-.144.086-.296.087-.45a1.3 1.3 0 10-1.533 1.278zM18.634 7.8a1.3 1.3 0 10-2.6 0 1.3 1.3 0 002.6 0zM14.35.943a17.982 17.982 0 012.658 4.723 2.21 2.21 0 01.324-.033A2.156 2.156 0 0119 6.434a17.884 17.884 0 013.501-.966 12.127 12.127 0 00-8.15-4.525zM3.933 4.949A12.08 12.08 0 00.868 13c0 .116.005.231.008.347a18.12 18.12 0 012.74-2.61 2.14 2.14 0 01.8-2.56 17.967 17.967 0 01-.481-3.229zm3.439 18.795a18.15 18.15 0 01.705-5.377 2.148 2.148 0 01-.465-3.467 18.177 18.177 0 01-1.751-2.79c-.076.012-.151.02-.228.023a2.157 2.157 0 01-1.551-.66A17.347 17.347 0 00.976 14.6a12.157 12.157 0 006.396 9.145zM13 25.134a12.084 12.084 0 008.054-3.07 18.13 18.13 0 01-3.61-.575 2.16 2.16 0 01-1.844 1.044 2.135 2.135 0 01-.607-.097 17.99 17.99 0 01-2.257 2.69c.088.003.177.007.264.007zm8.908-3.905a12.119 12.119 0 003.088-10.054 16.945 16.945 0 00-5.605-2.73 2.162 2.162 0 01-1.34 1.392 18.108 18.108 0 01-1.079 8.867c.5.407.792 1.017.795 1.663a2.1 2.1 0 01-.031.303c1.363.354 2.764.541 4.172.556z"/></svg>