<svg xmlns="http://www.w3.org/2000/svg" width="27" height="27"><path fill="#fff" d="M3.48 12.656A3.484 3.484 0 010 9.176V3.48A3.484 3.484 0 013.48 0h5.696a3.484 3.484 0 013.48 3.48v5.696a3.484 3.484 0 01-3.48 3.48zm0-10.969c-.988 0-1.792.805-1.792 1.793v5.696c0 .988.804 1.793 1.792 1.793h5.696c.988 0 1.793-.805 1.793-1.793V3.48c0-.988-.805-1.793-1.793-1.793zm14.34 10.969a3.484 3.484 0 01-3.48-3.48V3.48A3.484 3.484 0 0117.82 0h5.696a3.484 3.484 0 013.48 3.48v5.696a3.484 3.484 0 01-3.48 3.48zm0-10.969c-.988 0-1.792.805-1.792 1.793v5.696c0 .988.804 1.793 1.792 1.793h5.696c.988 0 1.793-.805 1.793-1.793V3.48c0-.988-.805-1.793-1.793-1.793zm2.848 25.309a6.335 6.335 0 01-6.328-6.328 6.335 6.335 0 016.328-6.328 6.335 6.335 0 016.328 6.328 6.335 6.335 0 01-6.328 6.328zm0-10.968a4.646 4.646 0 00-4.64 4.64 4.646 4.646 0 004.64 4.64 4.646 4.646 0 004.64-4.64 4.646 4.646 0 00-4.64-4.64zM3.48 26.996A3.484 3.484 0 010 23.516V17.82a3.484 3.484 0 013.48-3.48h5.696a3.484 3.484 0 013.48 3.48v5.696a3.484 3.484 0 01-3.48 3.48zm0-10.968c-.988 0-1.792.804-1.792 1.792v5.696c0 .988.804 1.793 1.792 1.793h5.696c.988 0 1.793-.805 1.793-1.793V17.82c0-.988-.805-1.792-1.793-1.792z"/></svg>