<svg width="18" height="24" viewBox="0 0 18 24" fill="none" xmlns="http://www.w3.org/2000/svg">
<path d="M17.934 9.43581C18.2924 7.04071 16.4686 5.75316 13.9747 4.89423L14.7837 1.64977L12.8086 1.15758L12.021 4.31655C11.5017 4.18718 10.9684 4.06512 10.4385 3.94418L11.2317 0.7644L9.25768 0.272217L8.44816 3.51556C8.01836 3.41768 7.59644 3.32094 7.1869 3.21912L7.18915 3.209L4.46523 2.52894L3.9398 4.6383C3.9398 4.6383 5.40527 4.97411 5.37433 4.99492C6.17429 5.1946 6.31887 5.72391 6.29468 6.14353L5.3732 9.83968C5.42833 9.85374 5.49978 9.87399 5.57854 9.90549C5.51272 9.88918 5.4424 9.87118 5.36983 9.85374L4.07819 15.0315C3.9803 15.2745 3.73222 15.639 3.17303 15.5006C3.19272 15.5293 1.73738 15.1423 1.73738 15.1423L0.756836 17.403L3.32717 18.0437C3.80535 18.1635 4.27396 18.2889 4.73526 18.407L3.91786 21.6886L5.89076 22.1808L6.70028 18.9341C7.23922 19.0803 7.7624 19.2153 8.27433 19.3425L7.46761 22.574L9.44276 23.0662L10.2602 19.7908C13.6282 20.4281 16.1609 20.171 17.2269 17.1251C18.0859 14.6726 17.1842 13.258 15.4121 12.3355C16.7026 12.0379 17.6747 11.1891 17.934 9.43581ZM13.4212 15.7633C12.8108 18.2158 8.68106 16.89 7.34216 16.5576L8.42678 12.21C9.76567 12.5442 14.0591 13.2056 13.4212 15.7633ZM14.0321 9.40037C13.4752 11.6312 10.038 10.4978 8.92296 10.2199L9.90631 6.27684C11.0213 6.55472 14.6121 7.07333 14.0321 9.40037Z" fill="white"/>
</svg>
