<svg xmlns="http://www.w3.org/2000/svg" width="24" height="26"><path fill="#e5e5e5" d="M15.652 10.39c-2.508.07-4.946.14-7.453.14-.349 0-.627-.28-.558-.63.21-2.102 1.811-3.714 3.762-3.924 2.229-.28 4.388 1.331 4.806 3.714.07.35-.21.7-.557.7zm6.269-3.854C20.876 4.856 18.299.792 13.353.09c-4.806-.63-8.22 2.242-8.916 2.873C.815 5.976.19 10.18.05 11.652c-.07 1.261-.418 5.395 2.508 9.039a11.194 11.194 0 005.781 3.714c1.811.56 3.622-.981 3.343-2.873v-.07c0-.35-.07-.7-.07-1.051-.069-.981-.696-1.892-1.671-2.243-.557-.21-1.114-.63-1.532-1.26-.279-.491-.418-1.052-.418-1.402 4.179 0 8.358-.07 12.468-.07 1.672 0 2.995-1.402 2.995-3.014 0-2.312-.627-4.414-1.532-5.886z"/><path fill="#e5e5e5" d="M17.18 25.808c2.16 0 3.97-1.822 3.97-3.994 0-2.242-1.81-4.064-3.97-4.064-2.229 0-4.04 1.822-4.04 4.064 0 2.172 1.811 3.994 4.04 3.994z"/></svg>