<svg xmlns="http://www.w3.org/2000/svg" width="42" height="42"><defs><clipPath id="a"><path fill="#fff" d="M42 21c0 11.598-9.402 21-21 21S0 32.598 0 21 9.402 0 21 0s21 9.402 21 21z"/></clipPath></defs><path fill="none" stroke="#3782e9" stroke-miterlimit="20" stroke-width="4" d="M42 21c0 11.598-9.402 21-21 21S0 32.598 0 21 9.402 0 21 0s21 9.402 21 21z" clip-path="url(&quot;#a&quot;)"/><path fill="#3782e9" d="M16.853 22.868c-2.281-3.39-1.518-8.084 1.702-10.485 3.221-2.4 7.68-1.598 9.96 1.793 2.281 3.39 1.519 8.084-1.702 10.484-2.3 1.713-5.338 1.845-7.763.338l-5.268 5.512a1.443 1.443 0 01-2.114.057 1.633 1.633 0 010-2.282zm5.836.514c2.545 0 4.608-2.17 4.61-4.849 0-2.679-2.062-4.85-4.607-4.852-2.542 0-4.604 2.166-4.609 4.841-.004 2.68 2.056 4.855 4.602 4.86h.004z"/></svg>