<svg width="19" height="19" fill="none" xmlns="http://www.w3.org/2000/svg"><path d="M7.877 14.482l-2.24 2.239a2.374 2.374 0 11-3.358-3.359l4.478-4.478a2.374 2.374 0 013.359 0 .792.792 0 001.12-1.12 3.958 3.958 0 00-5.598 0l-4.479 4.479a3.958 3.958 0 105.598 5.597l2.24-2.239a.792.792 0 00-1.12-1.12z" fill="#2B5B9D"/><path d="M17.84 1.16a3.959 3.959 0 00-5.597 0L9.557 3.844a.792.792 0 001.12 1.12l2.685-2.686a2.375 2.375 0 013.36 3.358l-4.927 4.926a2.374 2.374 0 01-3.358 0 .792.792 0 00-1.12 1.12 3.958 3.958 0 005.598 0l4.926-4.926a3.958 3.958 0 000-5.598z" fill="#2B5B9D"/></svg>