<svg xmlns="http://www.w3.org/2000/svg" width="73" height="72"><path fill="#e9a237" d="M70.988 44.752c-4.813 19.305-24.367 31.053-43.675 26.24-19.3-4.814-31.05-24.367-26.234-43.67C5.89 8.015 25.444-3.735 44.746 1.078c19.307 4.813 31.055 24.369 26.242 43.674z"/><path fill="#fff" d="M46.868 36.71c3.547 1.847 5.352 4.679 3.633 9.588-2.134 6.098-7.204 6.613-13.947 5.337l-1.636 6.557-3.954-.985 1.615-6.47a150.226 150.226 0 01-3.151-.817l-1.62 6.5-3.95-.985 1.636-6.57c-.923-.237-1.861-.488-2.819-.728l-5.145-1.282 1.963-4.526s2.913.775 2.874.717c1.12.277 1.616-.452 1.812-.939l2.586-10.365.417.103a3.278 3.278 0 00-.41-.132l1.844-7.399c.048-.84-.241-1.9-1.842-2.3.061-.041-2.872-.713-2.872-.713l1.052-4.223 5.452 1.361-.004.02c.82.204 1.665.398 2.525.594l1.62-6.493 3.952.985-1.588 6.366c1.061.242 2.129.487 3.168.746l1.577-6.325 3.954.986-1.62 6.495c4.993 1.72 8.644 4.297 7.926 9.092-.519 3.51-2.465 5.21-5.048 5.805zm-13.984-.251l-2.171 8.703c2.68.666 10.947 3.32 12.17-1.59 1.276-5.12-7.319-6.444-9.999-7.113zm2.962-11.878l-1.969 7.894c2.232.556 9.113 2.825 10.228-1.64 1.161-4.66-6.027-5.698-8.26-6.254z"/></svg>