<svg xmlns="http://www.w3.org/2000/svg" width="16" height="18"><path fill="gray" d="M2.813 18A2.816 2.816 0 010 15.187V5.66a2.816 2.816 0 012.813-2.812h6.714A2.816 2.816 0 0112.34 5.66v9.527A2.816 2.816 0 019.527 18zm0-13.746c-.776 0-1.407.63-1.407 1.406v9.528c0 .775.631 1.406 1.407 1.406h6.714c.776 0 1.407-.631 1.407-1.406V5.66c0-.775-.631-1.406-1.407-1.406zm12.34 9.176a.703.703 0 11-1.407 0V2.813c0-.776-.63-1.407-1.406-1.407H4.535a.703.703 0 110-1.406h7.805a2.816 2.816 0 012.812 2.813z"/></svg>