<svg width="16" height="18" fill="none" xmlns="http://www.w3.org/2000/svg"><path d="M9.52 18H2.81A2.815 2.815 0 010 15.187V5.66c0-1.55 1.26-2.812 2.81-2.812h6.71a2.814 2.814 0 012.811 2.812v9.527A2.814 2.814 0 019.521 18zM2.81 4.254c-.774 0-1.405.63-1.405 1.406v9.527c0 .776.63 1.407 1.406 1.407h6.71c.775 0 1.405-.631 1.405-1.407V5.66c0-.775-.63-1.406-1.405-1.406H2.81zm12.332 9.176V2.813A2.814 2.814 0 0012.332 0h-7.8a.703.703 0 000 1.406h7.8c.774 0 1.405.631 1.405 1.407V13.43a.703.703 0 101.405 0z" fill="#2B5B9D"/></svg>