<svg width="47" height="36" fill="none" xmlns="http://www.w3.org/2000/svg"><path d="M41.888 35.85H5.74a5.03 5.03 0 01-5.023-5.027V5.027A5.031 5.031 0 015.74 0h36.148a5.03 5.03 0 015.023 5.027v25.795a5.03 5.03 0 01-5.023 5.027zM5.74 1.886a3.142 3.142 0 00-3.138 3.14v25.795a3.143 3.143 0 003.138 3.14h36.148a3.142 3.142 0 003.137-3.14V5.028a3.142 3.142 0 00-3.137-3.14H5.74z" fill="#3782E9"/><path d="M45.97 25.472H35.126C31.75 25.472 29 22.72 29 19.34c0-3.382 2.749-6.133 6.127-6.133H45.97c.521 0 .943.423.943.944V24.53a.942.942 0 01-.943.943zM35.126 15.094a4.249 4.249 0 00-4.242 4.246 4.249 4.249 0 004.242 4.245h9.9v-8.49h-9.9z" fill="#3782E9"/><path d="M35.127 22.641a3.304 3.304 0 01-3.299-3.301 3.304 3.304 0 013.3-3.302c1.819 0 3.3 1.48 3.3 3.302a3.305 3.305 0 01-3.3 3.301zm0-4.717a1.416 1.416 0 000 2.83 1.416 1.416 0 000-2.83zM3.545 6.604H1.66a.943.943 0 110-1.887h1.885a.942.942 0 110 1.887zm36.852 0h-3.685a.943.943 0 110-1.887h3.685a.942.942 0 110 1.887zm-7.37 0H29.34a.943.943 0 110-1.887h3.686a.942.942 0 010 1.887zm-7.37 0H21.97a.943.943 0 110-1.887h3.686a.942.942 0 010 1.887zm-7.371 0H14.6a.942.942 0 110-1.887h3.686a.942.942 0 110 1.887zm-7.371 0H7.23a.943.943 0 110-1.887h3.685a.943.943 0 110 1.887zm35.054 0h-1.885a.943.943 0 110-1.887h1.885a.942.942 0 110 1.887z" fill="#3782E9"/><path d="M15.663 14.501a1 1 0 00-1.732 0l-6.057 10.5A1 1 0 008.74 26.5h12.115a1 1 0 00.866-1.5l-6.058-10.499z" fill="#FF1C45"/></svg>