<svg width="47" height="36" fill="none" xmlns="http://www.w3.org/2000/svg"><path d="M41.171 35.85H5.023A5.03 5.03 0 010 30.822V5.027A5.031 5.031 0 015.023 0H41.17a5.03 5.03 0 015.023 5.027v25.795a5.03 5.03 0 01-5.023 5.027zM5.023 1.886a3.142 3.142 0 00-3.138 3.14v25.795a3.143 3.143 0 003.138 3.14H41.17a3.142 3.142 0 003.138-3.14V5.028a3.142 3.142 0 00-3.138-3.14H5.023z" fill="#3782E9"/><path d="M45.252 25.472H34.411a6.137 6.137 0 01-6.128-6.132c0-3.382 2.75-6.133 6.128-6.133h10.841c.521 0 .943.423.943.944V24.53a.942.942 0 01-.943.943zM34.411 15.094a4.249 4.249 0 00-4.242 4.246 4.249 4.249 0 004.242 4.245h9.899v-8.49h-9.9z" fill="#3782E9"/><path d="M34.41 22.641a3.304 3.304 0 01-3.299-3.301 3.304 3.304 0 013.3-3.302c1.82 0 3.3 1.48 3.3 3.302 0 1.82-1.48 3.301-3.3 3.301zm0-4.717a1.416 1.416 0 000 2.83 1.416 1.416 0 000-2.83zM2.828 6.604H.943a.943.943 0 110-1.887h1.885a.942.942 0 110 1.887zm36.852 0h-3.685a.943.943 0 110-1.887h3.685a.942.942 0 110 1.887zm-7.37 0h-3.686a.943.943 0 110-1.887h3.686a.942.942 0 010 1.887zm-7.37 0h-3.685a.943.943 0 110-1.887h3.685a.942.942 0 010 1.887zm-7.37 0h-3.686a.942.942 0 110-1.887h3.685a.942.942 0 110 1.887zm-7.372 0H6.513a.943.943 0 110-1.887H10.2a.943.943 0 010 1.887zm35.054 0h-1.885a.943.943 0 110-1.887h1.885a.942.942 0 110 1.887z" fill="#3782E9"/><path d="M14.947 25.348a1 1 0 01-1.733 0l-6.057-10.5a1 1 0 01.866-1.499h12.115a1 1 0 01.866 1.5l-6.057 10.499z" fill="#0DB4AA"/></svg>