<svg xmlns="http://www.w3.org/2000/svg" width="50" height="50"><path fill="#fff" d="M22.657 49.663C10.164 49.663 0 39.5 0 27.008 0 14.514 10.164 4.35 22.657 4.35c.43 0 .78.35.78.781v3.123a.781.781 0 11-1.561 0V5.927c-11.272.412-20.314 9.71-20.314 21.08 0 11.631 9.463 21.094 21.095 21.094 11.37 0 20.668-9.042 21.08-20.313h-2.33a.78.78 0 110-1.563h3.125c.431 0 .781.35.781.782 0 12.492-10.164 22.657-22.657 22.657z"/><path fill="#fff" d="M22.661 46.543c-10.77 0-19.531-8.762-19.531-19.531 0-10.77 8.762-19.532 19.531-19.532 10.77 0 19.532 8.762 19.532 19.532s-8.762 19.53-19.532 19.53zm0-37.5c-9.908 0-17.969 8.06-17.969 17.969 0 9.908 8.061 17.969 17.97 17.969 9.908 0 17.969-8.061 17.969-17.97 0-9.908-8.062-17.969-17.97-17.969z"/><path fill="#fff" d="M17.84 19.476c0-.148.099-.246.247-.246h5.938c3.376 0 5.051 1.725 5.051 4.41 0 1.948-.936 3.13-2.242 3.647v.05c1.134.32 2.538 1.626 2.538 3.868 0 3.13-1.971 4.781-5.47 4.781h-5.815c-.148 0-.247-.098-.247-.246zm6.136 6.998c1.848 0 2.932-1.059 2.932-2.611 0-1.602-1.084-2.637-2.932-2.637H20.18c-.099 0-.148.05-.148.148v4.953c0 .099.05.147.148.147zm.123 7.516c1.996 0 3.08-1.084 3.08-2.76 0-1.65-1.084-2.76-3.08-2.76h-3.918c-.099 0-.148.05-.148.148v5.224c0 .098.05.148.148.148z"/><path fill="#fff" d="M21.091 19.976a.781.781 0 01-.781-.781V16.85a.781.781 0 011.563 0v2.344c0 .432-.35.781-.782.781zm2.35 0a.781.781 0 01-.781-.781V16.85a.781.781 0 011.562 0v2.344a.78.78 0 01-.78.781zm-2.35 18.75a.781.781 0 01-.781-.781V35.6a.781.781 0 011.563 0v2.344c0 .432-.35.781-.782.781zm2.35 0a.781.781 0 01-.781-.781V35.6a.781.781 0 011.562 0v2.344a.78.78 0 01-.78.781zM42.97 17.638a2.327 2.327 0 01-1.657-.687l-4.687-4.688a2.345 2.345 0 010-3.314c.884-.885 2.43-.885 3.314 0l.687.687V2.794A2.346 2.346 0 0142.97.45a2.346 2.346 0 012.343 2.344v6.842L46 8.949c.884-.885 2.43-.885 3.315 0 .914.914.914 2.4 0 3.314l-4.688 4.688a2.328 2.328 0 01-1.658.687zm-4.687-7.813a.782.782 0 00-.553 1.334l4.688 4.688a.798.798 0 001.104 0l4.688-4.688a.782.782 0 000-1.105.797.797 0 00-1.104 0l-2.021 2.02a.78.78 0 01-1.334-.552V2.794a.782.782 0 00-1.562 0v8.728a.781.781 0 01-1.333.552l-2.021-2.02a.774.774 0 00-.552-.229z"/></svg>