<svg xmlns="http://www.w3.org/2000/svg" width="50" height="50"><path fill="#fff" d="M19.833 43.656a.835.835 0 01-.18-.02 19.392 19.392 0 01-6.418-2.744.813.813 0 11.897-1.356 17.762 17.762 0 005.88 2.514.814.814 0 01-.179 1.606zM8.077 35.252a.813.813 0 01-.693-.385 19.34 19.34 0 01-2.549-6.51.813.813 0 011.596-.31 17.696 17.696 0 002.337 5.964.814.814 0 01-.691 1.24zm-2.253-14.3a.814.814 0 01-.79-1.007 19.345 19.345 0 012.73-6.185.814.814 0 011.351.905 17.701 17.701 0 00-2.501 5.668.815.815 0 01-.79.619zm8.4-11.485a.813.813 0 01-.426-1.505 19.374 19.374 0 015.947-2.404.814.814 0 01.351 1.588 17.737 17.737 0 00-5.448 2.202.811.811 0 01-.424.12zm19.52 0a.809.809 0 01-.424-.12 17.747 17.747 0 00-5.443-2.202.814.814 0 01-.618-.97.821.821 0 01.97-.618c2.102.467 4.1 1.275 5.94 2.403a.812.812 0 01-.425 1.507zm8.424 11.588a.813.813 0 01-.79-.623 17.741 17.741 0 00-2.387-5.556.813.813 0 111.364-.886 19.365 19.365 0 012.604 6.064.813.813 0 01-.791 1.001z"/><path fill="#fff" d="M23.988 9.976a4.884 4.884 0 01-4.878-4.878A4.884 4.884 0 0123.988.22a4.884 4.884 0 014.878 4.878 4.884 4.884 0 01-4.878 4.878zm0-8.13a3.255 3.255 0 00-3.252 3.252 3.256 3.256 0 003.252 3.252 3.255 3.255 0 003.252-3.252 3.255 3.255 0 00-3.252-3.252zm0 46.34a4.883 4.883 0 01-4.878-4.878 4.884 4.884 0 014.878-4.878 4.884 4.884 0 014.878 4.878 4.883 4.883 0 01-4.878 4.878zm0-8.13a3.256 3.256 0 00-3.252 3.252 3.255 3.255 0 003.252 3.252 3.255 3.255 0 003.252-3.252 3.255 3.255 0 00-3.252-3.252zm19.1-10.98a4.884 4.884 0 01-4.878-4.878 4.883 4.883 0 014.878-4.878 4.883 4.883 0 014.878 4.878 4.883 4.883 0 01-4.878 4.878zm0-8.13a3.255 3.255 0 00-3.252 3.252 3.255 3.255 0 003.252 3.252 3.256 3.256 0 003.252-3.252 3.255 3.255 0 00-3.252-3.252zm-38.21 8.13A4.884 4.884 0 010 24.198a4.883 4.883 0 014.878-4.878 4.883 4.883 0 014.878 4.878 4.884 4.884 0 01-4.878 4.878zm0-8.13a3.255 3.255 0 00-3.252 3.252 3.255 3.255 0 003.252 3.252 3.255 3.255 0 003.252-3.252 3.255 3.255 0 00-3.252-3.252zm32.618-5.382a4.863 4.863 0 01-3.45-1.426 4.885 4.885 0 010-6.899 4.847 4.847 0 013.45-1.429c1.303 0 2.528.508 3.449 1.43a4.845 4.845 0 011.429 3.448 4.848 4.848 0 01-1.429 3.45 4.86 4.86 0 01-3.449 1.426zm0-8.128a3.23 3.23 0 00-2.3.953 3.256 3.256 0 000 4.6 3.257 3.257 0 004.599 0 3.232 3.232 0 00.953-2.3c0-.87-.338-1.685-.953-2.3a3.23 3.23 0 00-2.299-.953zM10.478 42.594a4.844 4.844 0 01-3.449-1.429A4.843 4.843 0 015.6 37.716c0-1.302.507-2.528 1.43-3.45a4.883 4.883 0 016.898 0 4.885 4.885 0 010 6.9 4.848 4.848 0 01-3.45 1.428zm0-8.128c-.833 0-1.665.317-2.3.95a3.233 3.233 0 00-.952 2.3c0 .869.338 1.685.953 2.3 1.229 1.228 3.37 1.228 4.6 0a3.255 3.255 0 000-4.6 3.245 3.245 0 00-2.3-.95zm0-18.902a4.86 4.86 0 01-3.449-1.426 4.844 4.844 0 01-1.429-3.45 4.84 4.84 0 011.43-3.449 4.842 4.842 0 013.448-1.429c1.303 0 2.528.507 3.45 1.43a4.884 4.884 0 010 6.898 4.863 4.863 0 01-3.45 1.426zm0-8.128a3.23 3.23 0 00-2.3.953 3.233 3.233 0 00-.952 2.3c0 .868.338 1.685.953 2.3a3.258 3.258 0 004.6 0 3.256 3.256 0 000-4.6 3.231 3.231 0 00-2.3-.953zm31.395 37.496a.813.813 0 01-.813-.813v-1.626a.813.813 0 111.626 0v1.626c0 .45-.363.813-.813.813zm0-5.691a.813.813 0 01-.813-.813v-4.065a.813.813 0 111.626 0v4.065c0 .45-.363.813-.813.813z"/><path fill="#fff" d="M41.873 31.112a.812.812 0 01-.813-.813v-1.626a.812.812 0 111.626 0v1.626c0 .45-.363.813-.813.813zm2.44 13.82a.813.813 0 01-.813-.813v-1.626a.813.813 0 111.626 0v1.626c0 .45-.363.813-.813.813zm0-5.691a.813.813 0 01-.813-.813v-4.065a.813.813 0 111.626 0v4.065c0 .45-.363.813-.813.813zm0-8.129a.812.812 0 01-.813-.813v-1.626a.812.812 0 111.626 0v1.626c0 .45-.363.813-.813.813z"/><path fill="#fff" d="M43.09 49.817a.813.813 0 01-.555-.218l-6.097-5.691a.814.814 0 011.11-1.19l5.542 5.174 5.543-5.174a.815.815 0 011.15.04.815.815 0 01-.04 1.15l-6.098 5.69a.812.812 0 01-.555.22zM23.979 35.178c-5.828 0-10.569-4.741-10.569-10.569 0-5.828 4.741-10.569 10.569-10.569 5.828 0 10.57 4.741 10.57 10.569 0 5.828-4.742 10.57-10.57 10.57zm0-19.512c-4.931 0-8.943 4.012-8.943 8.943s4.012 8.943 8.943 8.943 8.943-4.012 8.943-8.943-4.012-8.943-8.943-8.943z"/><path fill="#fff" d="M21.35 20.112c0-.086.057-.142.142-.142h3.596c2.048 0 3.014 1.023 3.014 2.573 0 1.095-.51 1.72-1.122 2.047v.029c.597.227 1.293.995 1.293 2.175 0 1.92-1.208 2.843-3.326 2.843h-3.455a.135.135 0 01-.142-.142zm3.697 3.88c.852 0 1.378-.51 1.378-1.264 0-.768-.526-1.28-1.378-1.28h-1.935c-.056 0-.084.029-.084.085v2.375c0 .056.028.085.084.085zm.085 4.167c.938 0 1.464-.541 1.464-1.35 0-.797-.526-1.338-1.464-1.338h-2.02c-.056 0-.084.029-.084.086v2.516c0 .057.028.086.085.086z"/><path fill="#fff" d="M23.983 21.362a.813.813 0 01-.813-.813v-1.626a.813.813 0 111.626 0v1.626c0 .45-.363.813-.813.813zm0 9.748a.812.812 0 01-.813-.814v-.813a.813.813 0 111.626 0v.813c0 .45-.363.813-.813.813z"/></svg>