<svg xmlns="http://www.w3.org/2000/svg" width="54" height="54"><path fill="#fff" d="M27 41.4c-7.94 0-14.4-6.46-14.4-14.4S19.06 12.6 27 12.6 41.4 19.06 41.4 27 34.94 41.4 27 41.4zm0-27c-6.948 0-12.6 5.652-12.6 12.6 0 6.948 5.652 12.6 12.6 12.6 6.948 0 12.6-5.652 12.6-12.6 0-6.948-5.652-12.6-12.6-12.6z"/><path fill="#fff" d="M27 38.7c-6.452 0-11.7-5.249-11.7-11.7S20.548 15.3 27 15.3c6.452 0 11.7 5.249 11.7 11.7S33.452 38.7 27 38.7zm0-21.6c-5.459 0-9.9 4.441-9.9 9.9 0 5.459 4.441 9.9 9.9 9.9 5.459 0 9.9-4.441 9.9-9.9 0-5.459-4.441-9.9-9.9-9.9z"/><path fill="#fff" d="M24.09 22.027c0-.095.063-.157.157-.157h3.981c2.267 0 3.337 1.132 3.337 2.848 0 1.212-.566 1.904-1.243 2.266v.032c.661.252 1.432 1.102 1.432 2.408 0 2.124-1.338 3.147-3.683 3.147h-3.824c-.094 0-.157-.063-.157-.157zm4.092 4.296c.944 0 1.526-.566 1.526-1.4 0-.85-.582-1.417-1.526-1.417h-2.141c-.063 0-.094.032-.094.094v2.629c0 .062.031.094.094.094zm.094 4.612c1.039 0 1.62-.599 1.62-1.496 0-.88-.581-1.48-1.62-1.48H26.04c-.063 0-.094.032-.094.095v2.785c0 .064.031.096.094.096z"/><path fill="#fff" d="M27 23.4a.9.9 0 01-.9-.9v-1.8a.9.9 0 011.8 0v1.8a.9.9 0 01-.9.9zm0 10.8a.9.9 0 01-.9-.9v-.9a.9.9 0 111.8 0v.9a.9.9 0 01-.9.9zm0-20.7a.9.9 0 01-.9-.9V4.5a.9.9 0 011.8 0v8.1a.9.9 0 01-.9.9zm-10.186 4.214a.899.899 0 01-.637-.264l-5.464-5.464a.9.9 0 011.273-1.273l5.464 5.464a.9.9 0 01-.636 1.537z"/><path fill="#fff" d="M9.819 12.513c-.722 0-1.4-.28-1.91-.79a2.702 2.702 0 010-3.819c1.02-1.019 2.8-1.019 3.819 0a2.703 2.703 0 010 3.818c-.51.51-1.188.791-1.909.791zm0-3.6a.9.9 0 00-.637 1.536.917.917 0 001.272 0 .9.9 0 00.001-1.272.89.89 0 00-.636-.263zm32.825 34.631a.897.897 0 01-.637-.264l-5.464-5.464a.9.9 0 011.273-1.273l5.464 5.464a.9.9 0 01-.636 1.537z"/><path fill="#fff" d="M44.179 46.884c-.721 0-1.4-.281-1.91-.791a2.703 2.703 0 010-3.818c1.02-1.02 2.8-1.02 3.819 0a2.703 2.703 0 010 3.818c-.51.51-1.188.79-1.91.79zm0-3.6a.901.901 0 00-.637 1.537.92.92 0 001.273 0 .901.901 0 000-1.274.891.891 0 00-.636-.263zm-6.999-25.57a.9.9 0 01-.637-1.537l5.464-5.464a.9.9 0 011.273 1.273l-5.464 5.464a.897.897 0 01-.636.264z"/><path fill="#fff" d="M44.179 12.513c-.721 0-1.4-.28-1.91-.79a2.703 2.703 0 010-3.819c1.02-1.019 2.799-1.019 3.82 0a2.703 2.703 0 010 3.818h-.001c-.51.51-1.188.791-1.91.791zm0-3.6a.9.9 0 00-.637 1.536.92.92 0 001.273 0 .901.901 0 00-.636-1.535zM11.35 43.544a.9.9 0 01-.637-1.536l5.464-5.465a.9.9 0 011.273 1.273l-5.464 5.464a.895.895 0 01-.636.264z"/><path fill="#fff" d="M9.819 46.884c-.722 0-1.4-.281-1.91-.791a2.702 2.702 0 010-3.818c1.02-1.02 2.799-1.02 3.82 0a2.704 2.704 0 010 3.818h-.001c-.51.51-1.188.79-1.909.79zm0-3.6a.901.901 0 00-.637 1.537.92.92 0 001.272 0h.001a.902.902 0 00-.636-1.537zM27 5.4a2.703 2.703 0 01-2.7-2.7C24.3 1.211 25.511 0 27 0s2.7 1.211 2.7 2.7-1.21 2.7-2.7 2.7zm0-3.6a.901.901 0 000 1.8.901.901 0 000-1.8zm0 48.6a.9.9 0 01-.9-.9v-8.1a.9.9 0 111.8 0v8.1a.9.9 0 01-.9.9z"/><path fill="#fff" d="M27 54a2.703 2.703 0 01-2.7-2.7c0-1.489 1.211-2.7 2.7-2.7s2.7 1.211 2.7 2.7S28.49 54 27 54zm0-3.6a.9.9 0 10.001 1.801.9.9 0 000-1.801zM12.6 27.9H4.5a.9.9 0 110-1.8h8.1a.9.9 0 010 1.8z"/><path fill="#fff" d="M2.7 29.7A2.703 2.703 0 010 27c0-1.489 1.211-2.7 2.7-2.7s2.7 1.211 2.7 2.7-1.211 2.7-2.7 2.7zm0-3.6a.901.901 0 10.9.9c0-.496-.404-.9-.9-.9zm46.8 1.8h-8.1a.9.9 0 110-1.8h8.1a.9.9 0 110 1.8z"/><path fill="#fff" d="M51.3 29.7a2.703 2.703 0 01-2.7-2.7c0-1.489 1.211-2.7 2.7-2.7S54 25.511 54 27s-1.211 2.7-2.7 2.7zm0-3.6a.901.901 0 000 1.8.9.9 0 000-1.8z"/></svg>