<svg xmlns="http://www.w3.org/2000/svg" width="50" height="50"><path fill="#fff" d="M25.002 15.081a.861.861 0 01-.862-.862V9.482a.861.861 0 111.724 0v4.737a.862.862 0 01-.862.862zM20.69 6.034H9.482a.862.862 0 110-1.724H20.69a.862.862 0 110 1.724zM5.172 21.546a.862.862 0 01-.862-.862V9.482a.862.862 0 111.724 0v11.202a.862.862 0 01-.862.862zm9.018 4.318H9.482a.862.862 0 110-1.724h4.708a.861.861 0 110 1.724z"/><path fill="#fff" d="M5.173 10.345A5.178 5.178 0 010 5.173 5.178 5.178 0 015.173 0a5.178 5.178 0 015.172 5.173 5.178 5.178 0 01-5.172 5.172zm0-8.621a3.452 3.452 0 00-3.449 3.449A3.452 3.452 0 005.173 8.62 3.452 3.452 0 008.62 5.173a3.452 3.452 0 00-3.448-3.449zm19.83 8.621a5.178 5.178 0 01-5.173-5.172A5.178 5.178 0 0125.003 0a5.178 5.178 0 015.172 5.173 5.178 5.178 0 01-5.172 5.172zm0-8.621a3.452 3.452 0 00-3.448 3.449 3.451 3.451 0 003.448 3.448 3.452 3.452 0 003.448-3.448 3.452 3.452 0 00-3.448-3.449zM5.173 30.175A5.178 5.178 0 010 25.003a5.178 5.178 0 015.173-5.173 5.178 5.178 0 015.172 5.173 5.178 5.178 0 01-5.172 5.172zm0-8.62a3.452 3.452 0 00-3.449 3.448 3.452 3.452 0 003.449 3.448 3.452 3.452 0 003.448-3.448 3.452 3.452 0 00-3.448-3.448zm35.341 4.309h-5.172a.862.862 0 110-1.724h5.172a.861.861 0 110 1.724zM25.002 41.38a.861.861 0 01-.862-.862v-5.166a.861.861 0 111.724 0v5.166a.861.861 0 01-.862.862zm15.517 4.314H29.312a.861.861 0 110-1.724h11.207a.862.862 0 110 1.724zm4.313-4.318a.861.861 0 01-.862-.862V29.312a.862.862 0 111.724 0v11.202a.861.861 0 01-.862.862z"/><path fill="#fff" d="M44.833 30.175a5.178 5.178 0 01-5.173-5.172 5.178 5.178 0 015.173-5.173 5.178 5.178 0 015.172 5.173 5.178 5.178 0 01-5.172 5.172zm0-8.62a3.452 3.452 0 00-3.449 3.448 3.452 3.452 0 003.449 3.448 3.452 3.452 0 003.448-3.448 3.451 3.451 0 00-3.448-3.448zm-19.83 28.45a5.178 5.178 0 01-5.173-5.172 5.178 5.178 0 015.173-5.173 5.178 5.178 0 015.172 5.173 5.178 5.178 0 01-5.172 5.172zm0-8.621a3.452 3.452 0 00-3.448 3.449 3.451 3.451 0 003.448 3.448 3.452 3.452 0 003.448-3.448 3.452 3.452 0 00-3.448-3.449zm19.83 8.621a5.178 5.178 0 01-5.173-5.172 5.178 5.178 0 015.173-5.173 5.178 5.178 0 015.172 5.173 5.178 5.178 0 01-5.172 5.172zm0-8.621a3.452 3.452 0 00-3.449 3.449 3.452 3.452 0 003.449 3.448 3.451 3.451 0 003.448-3.448 3.452 3.452 0 00-3.448-3.449zm-19.836-5.18c-6.18 0-11.207-5.028-11.207-11.207 0-6.18 5.027-11.207 11.207-11.207 6.18 0 11.207 5.028 11.207 11.207 0 6.18-5.028 11.207-11.207 11.207zm0-20.69c-5.229 0-9.483 4.254-9.483 9.483 0 5.229 4.254 9.483 9.483 9.483 5.229 0 9.483-4.254 9.483-9.483 0-5.229-4.254-9.483-9.483-9.483z"/><path fill="#fff" d="M22.21 20.24c0-.09.06-.15.15-.15h3.814c2.171 0 3.196 1.085 3.196 2.728 0 1.162-.542 1.824-1.19 2.17v.03c.633.243 1.371 1.056 1.371 2.308 0 2.034-1.281 3.014-3.527 3.014H22.36c-.09 0-.151-.06-.151-.15zm3.92 4.115c.904 0 1.462-.542 1.462-1.34 0-.815-.558-1.358-1.462-1.358h-2.051c-.06 0-.09.03-.09.09v2.519c0 .06.03.09.09.09zm.09 4.418c.995 0 1.552-.573 1.552-1.432 0-.845-.557-1.418-1.552-1.418h-2.141c-.06 0-.09.03-.09.09v2.669c0 .06.03.09.09.09z"/><path fill="#fff" d="M25.002 21.549a.861.861 0 01-.862-.863v-1.724a.861.861 0 111.724 0v1.724a.862.862 0 01-.862.863zm0 10.347a.861.861 0 01-.862-.861v-.863a.861.861 0 111.724 0v.863a.861.861 0 01-.862.861z"/></svg>