<svg xmlns="http://www.w3.org/2000/svg" width="22" height="20"><path fill="#3782e9" d="M17.767 5.366C17.024 1.754 13.4-.59 9.671.13 6.945.656 4.812 2.72 4.267 5.362c-2.643.295-4.54 2.61-4.235 5.17.28 2.357 2.341 4.136 4.79 4.134h3.442c.38 0 .688-.299.688-.667a.678.678 0 00-.688-.667H4.822c-1.9-.01-3.432-1.512-3.421-3.353.011-1.842 1.56-3.325 3.462-3.315a.68.68 0 00.684-.593c.35-2.926 3.082-5.024 6.103-4.686 2.54.285 4.543 2.226 4.837 4.686a.723.723 0 00.725.593c1.9 0 3.441 1.493 3.441 3.334 0 1.842-1.54 3.334-3.441 3.334H13.77a.678.678 0 00-.688.667c0 .368.308.667.688.667h3.442c2.66-.016 4.804-2.119 4.788-4.696-.015-2.348-1.828-4.32-4.233-4.604z"/><path fill="#3782e9" d="M13.45 16.028l-1.745 1.69v-8.39a.678.678 0 00-.688-.667.678.678 0 00-.689.667v8.392l-1.745-1.691a.704.704 0 00-.973-.017.652.652 0 000 .96l2.92 2.828a.7.7 0 00.975 0l2.918-2.828a.652.652 0 00.017-.943.704.704 0 00-.99 0z"/></svg>