<svg width="181" height="37" fill="none" xmlns="http://www.w3.org/2000/svg"><path d="M68.298 26.95c1.315-2.079.73-4.752-1.315-6.236-2.19-1.337-4.966-.743-6.281 1.336-1.315 2.079-.73 4.9 1.315 6.236 2.045 1.337 4.82.743 6.281-1.336z" fill="#4E4E4E"/><path d="M68.115 18.899c-.14-.137-1.12-1.228-.98-3.002.14-1.637 1.26-2.592 1.4-2.729 1.819-1.5 4.617-1.364 6.156.273l4.337 4.912 4.478-4.912c1.539-1.774 4.337-1.91 6.016-.41 1.819 1.502 1.959 4.094.42 5.868l-5.177 5.594 5.177 5.73c1.539 1.638 1.399 4.23-.42 5.732-1.679 1.5-4.477 1.364-6.016-.273l-4.478-4.912-4.477 4.912c-1.679 1.637-4.337 1.773-6.016.273-1.82-1.501-2.1-4.094-.42-5.731l5.177-5.73-5.177-5.595zm-34.606-6.792c-4.083-.683-8.025 2.189-9.996 4.104-.282-.684-.704-1.642-1.55-2.325-1.266-1.368-2.956-1.642-3.66-1.779-3.801-.683-7.462 2.052-9.715 3.83-.281-1.915-2.111-3.42-4.223-3.42C1.97 12.518 0 14.434 0 16.758v16.14C0 35.222 1.971 37 4.365 37c2.393 0 4.364-1.778 4.364-4.103v-9.848c0-.41.141-1.641 1.408-2.598.986-.821 2.957-1.368 4.083-.41.845.683.845 1.914.845 2.188v10.668c0 2.325 1.971 4.103 4.365 4.103 2.534 0 4.364-1.778 4.364-4.103v-9.848c0-.549.282-1.641 1.408-2.598 1.126-.821 2.957-1.368 4.083-.41.986.683.986 1.914.986 2.188v10.668c0 2.325 1.97 4.103 4.364 4.103S39 35.222 39 32.897V18.673c0-.548 0-3.01-1.83-4.787-1.408-1.368-3.098-1.642-3.661-1.779zM48.593 25.77c-1.694-1.376-2.259-3.717-1.412-5.507 1.13-2.066 3.953-3.03 6.353-2.066.423.138.564.55.282.826l-4.235 6.61c-.141.413-.706.413-.988.138zm11.717 3.168c-.989-.551-2.118-.551-3.106.138-.928.679-2.596 1.048-3.53.137 2.4-3.58 4.942-7.298 7.342-10.878.988-1.515.564-3.305-.989-4.269-2.117-1.377-4.376-2.065-6.21-2.065-2.118 0-7.341-.138-11.012 3.855-3.388 3.856-2.823 8.4-2.682 9.364.565 4.957 3.953 7.849 5.223 8.813 1.13.826 4.8 3.442 9.74 2.892 2.965-.276 5.224-1.515 6.918-2.892 2.383-2.114.111-4.214-1.694-5.095zm108.258.882c-2.973 0-5.406-2.395-5.406-5.32 0-2.925 2.433-5.32 5.406-5.32 2.837 0 5.27 2.395 5.27 5.32 0 2.925-2.433 5.32-5.27 5.32zm0-17.82C161.541 12 156 17.585 156 24.5S161.676 37 168.568 37C175.459 37 181 31.415 181 24.5S175.459 12 168.568 12zM149.5 12c-2.468 0-4.5 1.786-4.5 4.12v16.622c0 2.335 2.032 4.258 4.5 4.258s4.5-1.923 4.5-4.258V16.12c0-2.335-2.032-4.121-4.5-4.121zm-22.85.112c-3.979-.684-7.82 2.188-9.74 4.102-.275-.683-.686-1.64-1.509-2.324-1.235-1.368-2.881-1.641-3.567-1.778-3.704-.684-7.271 1.914-9.329 3.829-.411-1.915-2.195-3.419-4.252-3.419-2.332 0-4.253 1.915-4.253 4.24v16.136C94 35.086 95.92 37 98.253 37c2.332 0 4.252-1.914 4.252-4.102v-9.846c0-.41.138-1.641 1.372-2.599.961-.82 2.881-1.367 3.979-.41.96.684.96 1.778.96 2.188v10.666c0 2.189 1.783 4.103 4.115 4.103 2.47 0 4.253-1.914 4.253-4.102v-9.846c0-.483.274-1.641 1.372-2.599 1.097-.82 2.881-1.367 4.115-.41.824.684.824 1.778.824 2.188v10.666c0 2.189 1.92 4.103 4.252 4.103S132 35.086 132 32.898V18.675c0-.684 0-3.009-1.783-4.786-1.372-1.368-3.018-1.641-3.567-1.778zM138.5 37c2.468 0 4.5-2.066 4.5-4.574 0-2.36-2.032-4.426-4.5-4.426s-4.5 2.066-4.5 4.426c0 2.508 2.032 4.574 4.5 4.574zm11-28c2.468 0 4.5-2.066 4.5-4.574C154 2.066 151.968 0 149.5 0S145 2.066 145 4.426C145 6.934 147.032 9 149.5 9z" fill="#4E4E4E"/></svg>