<svg xmlns="http://www.w3.org/2000/svg" width="479" height="212"><text dominant-baseline="text-before-edge" style="font-kerning:normal" fill="#393939" font-family="'Montserrat','Montserrat-Regular'" font-size="16" transform="translate(416 -2)"><tspan style="font-kerning:normal">F2Pool</tspan></text><text dominant-baseline="text-before-edge" style="font-kerning:normal" fill="#393939" font-family="'Montserrat','Montserrat-Regular'" font-size="16" transform="translate(416 90)"><tspan style="font-kerning:normal">AntPool</tspan></text><text dominant-baseline="text-before-edge" style="font-kerning:normal" fill="#393939" font-family="'Montserrat','Montserrat-Regular'" font-size="16" transform="translate(416 172)"><tspan style="font-kerning:normal">Poolin</tspan></text><path fill="#65a4fb" d="M272 0c2.362 0 4.723 0 7.085.214 2.577.214 4.938.428 7.3.856 2.362.214 4.723.643 6.87 1.285 2.362.428 4.724 1.07 7.085 1.712 2.147.642 4.51 1.499 6.656 2.355 2.362.856 4.509 1.712 6.656 2.783l6.44 3.21a89.895 89.895 0 016.013 3.64c1.932 1.284 4.079 2.783 5.796 4.281 1.933 1.285 3.865 2.783 5.583 4.495 1.717 1.499 3.435 3.211 5.152 4.924 1.718 1.712 3.22 3.425 4.938 5.352a54.822 54.822 0 014.295 5.565c1.502 1.927 2.79 3.853 4.079 5.78 1.288 2.14 2.362 4.281 3.435 6.208 1.288 2.14 2.147 4.281 3.22 6.636l-45.301 19.48c-.859-2.141-2.147-4.282-3.435-6.208-1.074-2.14-2.577-4.067-4.08-5.78-1.503-1.927-3.22-3.64-4.938-5.137-1.932-1.499-3.864-2.997-5.797-4.282-1.932-1.284-4.08-2.569-6.226-3.425-2.147-1.07-4.294-1.926-6.656-2.569-2.362-.642-4.723-1.284-7.085-1.498a39.648 39.648 0 00-7.085-.642z"/><path fill="#ff1c45" d="M362.6 59.3c1.289 3.211 2.577 6.422 3.65 9.847a89.882 89.882 0 012.577 10.275c.859 3.64 1.288 7.064 1.503 10.49.43 3.638.43 7.277.43 10.702 0 3.64-.43 7.064-.86 10.704a86.424 86.424 0 01-1.932 10.275c-.859 3.639-1.718 6.85-3.006 10.275-1.288 3.425-2.576 6.636-4.079 9.847l-44.443-21.62c1.503-3.212 2.791-6.423 3.65-10.062a42.539 42.539 0 001.288-10.489c0-3.425-.215-7.064-.859-10.49-.644-3.424-1.717-6.85-3.22-10.274z"/><path fill="#ffca42" d="M360.889 141.71c-1.718 3.211-3.22 6.208-5.153 9.205-1.933 2.997-3.865 5.78-6.227 8.563-2.147 2.783-4.508 5.565-6.87 7.92-2.576 2.569-5.153 4.924-7.73 7.278-2.79 2.141-5.581 4.282-8.587 6.208-3.006 1.927-6.012 3.64-9.232 5.352-3.006 1.498-6.227 2.997-9.662 4.281-3.22 1.284-6.656 2.355-9.876 3.211l-12.882-47.522c3.435-.856 6.87-2.14 9.876-3.853 3.22-1.499 6.226-3.425 8.803-5.78a41.436 41.436 0 007.514-7.492c2.147-2.783 4.08-5.78 5.583-8.991z"/><path fill="#0db4aa" d="M297.554 193.724c-3.22.856-6.441 1.498-9.662 2.14-3.22.429-6.655.857-9.876 1.07a75.99 75.99 0 01-9.876 0c-3.22 0-6.441-.213-9.661-.855-3.436-.429-6.656-1.07-9.877-1.713-3.006-.856-6.226-1.712-9.232-2.783-3.22-1.07-6.226-2.354-9.232-3.853-3.006-1.284-5.797-2.783-8.588-4.495l25.12-42.385c3.006 1.713 5.797 2.997 9.017 4.281 3.006 1.07 6.227 1.713 9.447 2.14 3.435.643 6.656.643 9.876.43 3.22-.215 6.656-.643 9.662-1.5z"/><path fill="#3782e9" d="M221.548 183.235c-6.012-3.64-11.38-7.707-16.532-12.202a116.04 116.04 0 01-13.526-15.412l40.364-28.471c3.864 5.566 9.017 10.275 14.814 13.7z"/><path fill="#65a4fb" d="M191.483 155.62c-7.514-10.49-12.667-22.049-15.673-34.679l48.093-11.131c1.503 6.208 4.08 11.988 7.944 17.34z"/><path fill="#ff1c45" d="M175.81 120.947c-2.791-11.988-3.22-23.975-1.503-36.177l48.737 6.85c-.859 6.208-.43 12.202.859 18.195z"/><path fill="#ffca42" d="M174.31 84.772c1.503-11.132 4.938-21.621 10.09-31.682l43.8 22.69c-2.577 5.138-4.294 10.276-5.153 15.841z"/><path fill="#0db4aa" d="M184.4 53.091c4.509-8.777 10.306-16.697 17.39-23.761l34.997 34.678c-3.435 3.425-6.226 7.493-8.588 11.774z"/><path fill="#3782e9" d="M201.79 29.325c6.656-6.85 14.385-12.63 22.758-17.125l23.617 43.241c-4.079 2.14-7.944 5.138-11.379 8.563z"/><path fill="#65a4fb" d="M224.55 12.206A95.239 95.239 0 01242.585 4.5l14.814 47.094c-3.22.856-6.226 2.14-9.232 3.853z"/><path fill="#ff1c45" d="M242.59 4.5c5.582-1.713 11.38-2.998 17.176-3.64l6.226 48.807a55.635 55.635 0 00-8.588 1.926z"/><path fill="#ffca42" d="M259.76.856c3.006-.428 6.012-.642 8.803-.856l1.717 49.235c-1.503.214-3.005.214-4.294.428z"/><path fill="#0db4aa" d="M268.56 0h2.147l.644 49.235h-1.073z"/><path fill="#3782e9" d="M270.71 0h1.288v49.235h-.644z"/><text dominant-baseline="text-before-edge" style="font-kerning:normal" font-family="'Montserrat','Montserrat-Regular'" font-size="16" transform="translate(71 56)"><tspan style="font-kerning:normal">ViaBTC</tspan></text><text dominant-baseline="text-before-edge" style="font-kerning:normal" font-family="'Montserrat','Montserrat-Regular'" font-size="16" transform="translate(83 93)"><tspan style="font-kerning:normal">OKEX</tspan></text><text dominant-baseline="text-before-edge" style="font-kerning:normal" font-family="'Montserrat','Montserrat-Regular'" font-size="16" transform="translate(50 133)"><tspan style="font-kerning:normal">Unknown</tspan></text><text dominant-baseline="text-before-edge" style="font-kerning:normal" font-family="'Montserrat','Montserrat-Regular'" font-size="16" transform="translate(0 166)"><tspan style="font-kerning:normal">1THash&amp;58COIN</tspan></text><text dominant-baseline="text-before-edge" style="font-kerning:normal" font-family="'Montserrat','Montserrat-Regular'" font-size="16" transform="translate(57 196)"><tspan style="font-kerning:normal">BTC.com</tspan></text></svg>