<svg xmlns="http://www.w3.org/2000/svg" width="596" height="316"><path fill="#0db4aa" d="M2 7h131v9H2zm0 12h190v9H2zm0 12h83v9H2zm0 12h104v9H2zm0 12h117v9H2zm0 12h135v9H2zm0 12h191v9H2zm0 12h169v9H2zm0 12h83v9H2zm0 12h109v9H2zm0 12h135v9H2zm0 12h89v9H2zm0 12h83v9H2zm0 12h113v9H2zm0 12h143v9H2zm0 12h124v9H2zm0 12h83v9H2z"/><path fill="#ffca42" d="M2 211h175v9H2zm0 12h216v9H2zm0 12h216v9H2zm0 12h267v9H2zm0 12h381v9H2zm0 12h331v9H2zm0 12h444v9H2z"/><path fill="#ff1c45" d="M2 295h513v9H2zm0 12h360v9H2z"/></svg>